<?xml version="1.0" standalone="no"?>
<!DOCTYPE svg PUBLIC "-//W3C//DTD SVG 20010904//EN"
 "http://www.w3.org/TR/2001/REC-SVG-20010904/DTD/svg10.dtd">
<svg version="1.0" xmlns="http://www.w3.org/2000/svg"
 width="260.000000pt" height="260.000000pt" viewBox="0 0 260.000000 260.000000"
 preserveAspectRatio="xMidYMid meet">
<metadata>
Created by potrace 1.11, written by Peter Selinger 2001-2013
</metadata>
<g transform="translate(0.000000,260.000000) scale(0.100000,-0.100000)"
fill="#000000" stroke="none">
<path d="M0 1300 l0 -1300 1300 0 1300 0 0 1300 0 1300 -1300 0 -1300 0 0
-1300z m1421 796 c37 -8 95 -29 130 -47 87 -43 205 -162 247 -249 80 -163 80
-358 0 -520 -40 -81 -150 -193 -234 -237 -209 -111 -485 -72 -648 91 -98 98
-147 195 -168 333 -23 147 23 316 100 369 143 97 330 47 349 -94 3 -23 3 -48
-1 -57 -5 -15 -9 -14 -32 4 -19 15 -41 21 -76 21 -43 0 -55 -5 -83 -33 -58
-58 -69 -148 -34 -263 17 -56 31 -77 77 -124 85 -84 135 -105 252 -105 84 0
102 3 151 28 153 74 233 264 185 432 -21 69 -36 96 -90 153 -78 83 -190 120
-308 101 -57 -9 -66 -8 -103 13 -52 30 -181 33 -235 5 -58 -30 75 92 137 126
112 60 256 80 384 53z m-306 -1315 c0 -15 -8 -27 -22 -32 -20 -7 -23 -5 -23
20 0 32 8 43 30 39 8 -2 15 -14 15 -27z m255 -10 c0 -20 6 -30 20 -34 23 -6
17 -37 -6 -37 -10 0 -14 -15 -14 -56 0 -47 3 -55 16 -50 11 4 14 1 12 -12 -2
-9 -14 -18 -26 -20 -39 -6 -52 15 -52 79 0 33 -4 59 -10 59 -5 0 -10 9 -10 20
0 11 5 20 10 20 6 0 10 8 10 18 0 21 18 42 37 42 8 0 13 -12 13 -29z m-565
-47 c30 -20 49 -73 36 -105 -20 -54 -72 -77 -124 -55 -40 16 -57 41 -57 83 0
35 16 53 46 53 31 0 37 -13 14 -33 -27 -23 -13 -61 24 -65 34 -4 56 13 56 44
0 32 -23 51 -72 59 -39 7 -40 8 -23 21 25 19 70 18 100 -2z m208 -1 c13 -13
17 -32 17 -90 0 -65 -2 -73 -19 -73 -16 0 -19 9 -23 60 -5 68 -19 91 -46 74
-12 -8 -18 -28 -20 -73 -3 -57 -4 -61 -27 -61 -25 0 -25 1 -25 89 l0 89 63 0
c42 0 68 -5 80 -15z m107 -79 c0 -83 0 -84 -25 -84 -25 0 -25 1 -25 80 0 64 3
81 17 89 10 5 21 7 25 5 5 -3 8 -43 8 -90z m124 90 c16 -6 22 -35 10 -47 -3
-3 -14 -1 -25 6 -10 6 -22 7 -26 3 -4 -5 -1 -11 7 -14 19 -7 70 -58 70 -70 0
-5 -8 -20 -18 -33 -21 -25 -71 -30 -97 -9 -23 19 -1 41 36 33 40 -8 37 10 -6
36 -71 41 -28 124 49 95z m339 -19 c32 -33 38 -67 18 -108 -46 -91 -171 -59
-171 44 0 33 4 40 25 45 28 7 55 0 55 -16 0 -5 -7 -10 -15 -10 -21 0 -29 -24
-15 -49 16 -31 67 -29 82 4 17 37 -10 71 -64 80 -39 7 -40 9 -23 21 30 22 79
17 108 -11z m97 15 c0 -6 7 -6 19 1 25 16 51 5 51 -22 0 -15 -4 -19 -16 -15
-30 11 -44 -13 -44 -75 0 -56 -1 -59 -25 -59 -25 0 -25 1 -25 90 0 83 1 90 20
90 11 0 20 -5 20 -10z m152 -57 c2 -55 6 -68 20 -71 31 -6 48 23 48 82 0 49 2
56 20 56 19 0 20 -7 20 -99 0 -117 -11 -139 -76 -148 -34 -4 -46 -1 -63 16
-11 11 -21 28 -21 35 0 13 5 13 33 2 33 -14 77 -6 77 13 0 7 -8 7 -22 2 -29
-11 -63 2 -77 28 -6 11 -11 49 -11 85 0 63 1 66 25 66 23 0 24 -3 27 -67z"/>
</g>
</svg>
